<svg width="140" height="127" viewBox="0 0 140 127" fill="none" xmlns="http://www.w3.org/2000/svg">
    <mask id="mask0_233_321" style="mask-type:alpha" maskUnits="userSpaceOnUse" x="0" y="0" width="140" height="127">
        <rect x="0.149902" y="0.292969" width="139" height="126" rx="30" fill="#C4D62D" fill-opacity="0.7"/>
    </mask>
    <g mask="url(#mask0_233_321)">
        <path d="M9.26835 -7.68664C-9.05713 5.80027 1.63273 34.0163 9.26835 46.4385L27.7701 41.1147C27.7701 29.5798 29.5322 14.4958 27.7701 10.0593C24.246 -9.81615 13.9672 -10.0528 9.26835 -7.68664Z" fill="white" fill-opacity="0.38"/>
        <path d="M27.7701 46.4385L9.26835 50.875C14.2021 75.0094 23.6586 73.9447 27.7701 70.3955C36.9329 65.4266 31.5879 52.3538 27.7701 46.4385Z" fill="white" fill-opacity="0.38"/>
        <path d="M60.0312 13.249C78.3567 26.7359 67.6668 54.952 60.0312 67.3741L41.5294 62.0504C41.5294 50.5155 39.7674 35.4315 41.5294 30.995C45.0536 11.1195 55.3323 10.8829 60.0312 13.249Z" fill="white" fill-opacity="0.38"/>
        <path d="M41.5294 67.3741L60.0312 71.8106C55.0975 95.9451 45.641 94.8804 41.5294 91.3312C32.3667 86.3623 37.7116 73.2895 41.5294 67.3741Z" fill="white" fill-opacity="0.38"/>
    </g>
</svg>
