<svg width="325" height="280" viewBox="0 0 325 280" fill="none" xmlns="http://www.w3.org/2000/svg">
    <g filter="url(#filter0_b_233_298)">
        <rect width="325" height="247" rx="30" fill="white" fill-opacity="0.8"/>
    </g>
    <path d="M130.044 29.0352H132.671L134.166 39.0645L137.798 29.0352H140.289L143.687 38.6738L145.269 29.0352H147.818L145.191 43H142.73L138.892 32.043L134.771 43H132.339L130.044 29.0352ZM154.207 32.7461C157.319 32.7461 158.875 34.3346 158.875 37.5117C158.875 37.9349 158.845 38.3581 158.787 38.7812H151.98C151.98 40.2266 153.041 40.9492 155.164 40.9492C156.199 40.9492 157.234 40.8516 158.269 40.6562V42.707C157.364 42.9023 156.264 43 154.968 43C151.251 43 149.392 41.252 149.392 37.7559C149.392 34.416 150.997 32.7461 154.207 32.7461ZM151.98 36.9844H156.355V36.9062C156.355 35.487 155.639 34.7773 154.207 34.7773C152.839 34.7773 152.097 35.513 151.98 36.9844ZM163.906 29.0352V31.0859H161.318V29.0352H163.906ZM163.906 32.7461V43H161.318V32.7461H163.906ZM173.419 35.0703C172.996 34.9141 172.394 34.8359 171.613 34.8359C169.822 34.8359 168.927 35.8223 168.927 37.7949C168.927 39.7025 169.699 40.6562 171.242 40.6562C171.984 40.6562 172.71 40.4805 173.419 40.1289V35.0703ZM176.007 42.2188C176.007 45.2135 174.207 46.7109 170.607 46.7109C169.344 46.7109 168.224 46.5482 167.248 46.2227V44.1719C168.244 44.4974 169.37 44.6602 170.626 44.6602C172.488 44.6602 173.419 43.8789 173.419 42.3164C172.651 42.6419 171.824 42.8047 170.939 42.8047C167.892 42.8047 166.369 41.1413 166.369 37.8145C166.369 34.4355 168.143 32.7461 171.691 32.7461C172.882 32.7461 174.321 32.8861 176.007 33.166V42.2188ZM178.959 43V29.0352H181.546V34.0547C182.354 33.1823 183.386 32.7461 184.642 32.7461C187.071 32.7461 188.285 34.0091 188.285 36.5352V43H185.697V36.5352C185.697 35.4023 185.134 34.8359 184.007 34.8359C183.168 34.8359 182.347 35.1712 181.546 35.8418V43H178.959ZM191.089 31.0859H193.003L193.394 32.7461H195.972V34.7969H193.677V39.5137C193.677 40.4707 194.091 40.9492 194.918 40.9492H195.972V43H193.668C191.949 43 191.089 42.0788 191.089 40.2363V31.0859Z" fill="#444444"/>
    <path d="M126.892 144.219L120.361 148.438L120.923 149.312L125.548 146.469V159.906L121.486 160.188V161H132.83C132.83 160.562 132.611 160.302 132.173 160.219C132.09 160.198 132.007 160.188 131.923 160.188L129.205 159.906V144.219H126.892ZM148.611 157.438C148.611 155.188 147.726 153.552 145.955 152.531C144.913 151.927 143.705 151.625 142.33 151.625C140.642 151.646 139.121 152.083 137.767 152.938V147.031C139.392 147.219 140.84 147.312 142.111 147.312C144.34 147.312 145.757 147.021 146.361 146.438C146.903 145.792 147.184 144.635 147.205 142.969H146.392C146.163 143.677 145.736 144.115 145.111 144.281C144.673 144.406 144.028 144.469 143.173 144.469C143.132 144.469 140.976 144.375 136.705 144.188V153.344L137.767 154.156C138.892 153.26 140.048 152.812 141.236 152.812C142.944 152.812 144.09 153.635 144.673 155.281C144.903 155.948 145.017 156.688 145.017 157.5C145.017 160.083 144.246 161.708 142.705 162.375C142.246 162.583 141.736 162.688 141.173 162.688C140.09 162.688 139.444 162.198 139.236 161.219C139.173 160.99 139.132 160.625 139.111 160.125C139.028 159.062 138.809 158.385 138.455 158.094C138.163 157.844 137.757 157.719 137.236 157.719C136.257 157.719 135.673 158.156 135.486 159.031C135.444 159.219 135.423 159.396 135.423 159.562C135.423 161.021 136.215 162.115 137.798 162.844C138.736 163.281 139.819 163.5 141.048 163.5C143.59 163.5 145.58 162.792 147.017 161.375C148.08 160.292 148.611 158.979 148.611 157.438ZM166.423 161C166.298 160.479 166.017 160.198 165.58 160.156H163.923V152.719L165.142 151.625L171.548 161.031L177.017 161C176.892 160.479 176.611 160.198 176.173 160.156H175.705L167.892 149.094L172.923 144.5C173.778 143.688 174.423 143.24 174.861 143.156C175.028 143.115 175.184 143.094 175.33 143.094C175.851 142.927 176.132 142.646 176.173 142.25H170.423V143.094H172.923L163.923 151.281V143.094H166.423V142.25H157.58V143.094H160.08V160.156H157.58V161H166.423ZM182.423 152.375C182.423 150.271 182.757 148.958 183.423 148.438C183.778 148.146 184.267 148 184.892 148C186.1 148 186.85 148.594 187.142 149.781C187.288 150.365 187.361 151.208 187.361 152.312C187.361 154.458 187.007 155.802 186.298 156.344C185.923 156.615 185.444 156.75 184.861 156.75C183.653 156.75 182.903 156.115 182.611 154.844C182.486 154.26 182.423 153.438 182.423 152.375ZM184.986 147.188C182.736 147.188 181.048 147.906 179.923 149.344C179.257 150.198 178.923 151.188 178.923 152.312C178.923 153.833 179.663 155.146 181.142 156.25C181.371 156.417 181.6 156.573 181.83 156.719C180.621 156.698 179.788 157.24 179.33 158.344C179.184 158.719 179.111 159.104 179.111 159.5C179.132 160.521 179.538 161.333 180.33 161.938C179.746 162.583 179.455 163.25 179.455 163.938C179.455 165.062 180.173 165.906 181.611 166.469C182.569 166.844 183.725 167.031 185.08 167.031C188.413 167.031 190.59 166.25 191.611 164.688C191.923 164.167 192.08 163.625 192.08 163.062C192.08 161.146 191.028 160.021 188.923 159.688C188.59 159.625 188.246 159.594 187.892 159.594L181.673 159.469C181.028 159.448 180.653 159.177 180.548 158.656C180.528 158.573 180.517 158.5 180.517 158.438C180.517 157.958 180.798 157.667 181.361 157.562C181.486 157.542 181.6 157.531 181.705 157.531L184.767 157.562H184.861C187.028 157.562 188.673 156.833 189.798 155.375C190.507 154.438 190.861 153.396 190.861 152.25C190.84 150.729 190.267 149.49 189.142 148.531C189.434 147.865 189.861 147.521 190.423 147.5C190.694 147.5 191.028 147.677 191.423 148.031C191.715 148.26 191.975 148.375 192.205 148.375C192.788 148.375 193.142 148.094 193.267 147.531C193.288 147.427 193.298 147.333 193.298 147.25C193.298 146.521 192.944 146.01 192.236 145.719C191.944 145.615 191.632 145.562 191.298 145.562C190.257 145.562 189.434 146.125 188.83 147.25C188.684 147.521 188.569 147.792 188.486 148.062C187.507 147.479 186.34 147.188 184.986 147.188ZM185.08 166.219C182.725 166.219 181.267 165.667 180.705 164.562C180.58 164.312 180.517 164.052 180.517 163.781C180.538 163.302 180.725 162.823 181.08 162.344C181.496 162.49 181.903 162.562 182.298 162.562L188.142 162.625C189.475 162.646 190.246 162.885 190.455 163.344C190.538 163.51 190.58 163.698 190.58 163.906C190.58 164.865 189.673 165.542 187.861 165.938C187.007 166.125 186.08 166.219 185.08 166.219ZM199.642 160.438C201.038 160.438 201.903 159.969 202.236 159.031C202.298 158.823 202.33 158.615 202.33 158.406C202.33 157.406 201.673 156.562 200.361 155.875C200.069 155.729 199.611 155.521 198.986 155.25C197.382 154.542 196.309 153.896 195.767 153.312C195.205 152.646 194.923 151.875 194.923 151C194.923 149.354 195.819 148.219 197.611 147.594C198.403 147.323 199.288 147.188 200.267 147.188C201.788 147.188 203.038 147.479 204.017 148.062C204.017 147.438 204.184 147.094 204.517 147.031C204.621 147.01 204.725 147 204.83 147V150.906H203.892C203.809 149.01 202.767 148.052 200.767 148.031C199.371 148.031 198.507 148.469 198.173 149.344C198.09 149.573 198.048 149.802 198.048 150.031C198.048 150.906 198.673 151.667 199.923 152.312C200.194 152.438 200.632 152.635 201.236 152.906C202.882 153.615 203.975 154.271 204.517 154.875C205.142 155.583 205.455 156.417 205.455 157.375C205.455 159.146 204.538 160.333 202.705 160.938C201.955 161.188 201.121 161.312 200.205 161.312C198.455 161.312 196.986 160.969 195.798 160.281C195.798 160.823 195.663 161.135 195.392 161.219C195.267 161.24 195.121 161.25 194.955 161.25V156.5H195.955C195.996 159.104 197.225 160.417 199.642 160.438ZM142.15 177.207H143.498V182.285C143.615 184.173 144.494 185.15 146.134 185.215C147.163 185.215 147.86 184.805 148.224 183.984C148.354 183.698 148.459 183.353 148.537 182.949L148.009 182.871C147.723 184.03 147.261 184.616 146.623 184.629C146.076 184.629 145.757 184.258 145.666 183.516C145.653 183.385 145.646 183.255 145.646 183.125V177.207H148.38V176.699H145.646V174.434L143.498 174.844V176.699H142.15V177.207ZM152.142 180.781C152.142 178.802 152.494 177.585 153.197 177.129C153.483 176.96 153.815 176.875 154.193 176.875C155.183 176.875 155.808 177.435 156.068 178.555C156.198 179.102 156.263 179.818 156.263 180.703C156.263 182.799 155.866 184.062 155.072 184.492C154.811 184.622 154.518 184.688 154.193 184.688C153.216 184.688 152.598 184.128 152.337 183.008C152.207 182.448 152.142 181.706 152.142 180.781ZM154.271 176.367C152.787 176.367 151.615 176.875 150.755 177.891C150.104 178.672 149.779 179.609 149.779 180.703C149.779 182.214 150.313 183.398 151.38 184.258C152.162 184.883 153.08 185.195 154.134 185.195C155.58 185.195 156.732 184.674 157.591 183.633C158.268 182.812 158.607 181.836 158.607 180.703C158.607 179.18 158.06 178.014 156.966 177.207C156.211 176.647 155.313 176.367 154.271 176.367ZM167.127 179.609C167.127 178.294 167.335 177.474 167.752 177.148C167.973 176.966 168.279 176.875 168.67 176.875C169.425 176.875 169.893 177.246 170.076 177.988C170.167 178.353 170.212 178.88 170.212 179.57C170.212 180.911 169.991 181.751 169.548 182.09C169.314 182.259 169.015 182.344 168.65 182.344C167.895 182.344 167.426 181.947 167.244 181.152C167.166 180.788 167.127 180.273 167.127 179.609ZM168.728 176.367C167.322 176.367 166.267 176.816 165.564 177.715C165.147 178.249 164.939 178.867 164.939 179.57C164.939 180.521 165.401 181.341 166.326 182.031C166.469 182.135 166.612 182.233 166.755 182.324C166 182.311 165.479 182.65 165.193 183.34C165.102 183.574 165.056 183.815 165.056 184.062C165.069 184.701 165.323 185.208 165.818 185.586C165.453 185.99 165.271 186.406 165.271 186.836C165.271 187.539 165.72 188.066 166.619 188.418C167.218 188.652 167.94 188.77 168.787 188.77C170.87 188.77 172.231 188.281 172.869 187.305C173.064 186.979 173.162 186.641 173.162 186.289C173.162 185.091 172.504 184.388 171.189 184.18C170.981 184.141 170.766 184.121 170.545 184.121L166.658 184.043C166.254 184.03 166.02 183.861 165.955 183.535C165.942 183.483 165.935 183.438 165.935 183.398C165.935 183.099 166.111 182.917 166.462 182.852C166.541 182.839 166.612 182.832 166.677 182.832L168.591 182.852H168.65C170.004 182.852 171.033 182.396 171.736 181.484C172.179 180.898 172.4 180.247 172.4 179.531C172.387 178.581 172.029 177.806 171.326 177.207C171.508 176.79 171.775 176.576 172.127 176.562C172.296 176.562 172.504 176.673 172.752 176.895C172.934 177.038 173.097 177.109 173.24 177.109C173.604 177.109 173.826 176.934 173.904 176.582C173.917 176.517 173.923 176.458 173.923 176.406C173.923 175.951 173.702 175.632 173.259 175.449C173.077 175.384 172.882 175.352 172.673 175.352C172.022 175.352 171.508 175.703 171.13 176.406C171.039 176.576 170.968 176.745 170.916 176.914C170.304 176.549 169.574 176.367 168.728 176.367ZM168.787 188.262C167.315 188.262 166.404 187.917 166.052 187.227C165.974 187.07 165.935 186.908 165.935 186.738C165.948 186.439 166.065 186.139 166.287 185.84C166.547 185.931 166.801 185.977 167.048 185.977L170.701 186.016C171.534 186.029 172.016 186.178 172.146 186.465C172.198 186.569 172.224 186.686 172.224 186.816C172.224 187.415 171.658 187.839 170.525 188.086C169.991 188.203 169.412 188.262 168.787 188.262ZM177.295 180.781C177.295 178.802 177.646 177.585 178.349 177.129C178.636 176.96 178.968 176.875 179.345 176.875C180.335 176.875 180.96 177.435 181.22 178.555C181.35 179.102 181.416 179.818 181.416 180.703C181.416 182.799 181.018 184.062 180.224 184.492C179.964 184.622 179.671 184.688 179.345 184.688C178.369 184.688 177.75 184.128 177.49 183.008C177.36 182.448 177.295 181.706 177.295 180.781ZM179.423 176.367C177.939 176.367 176.767 176.875 175.908 177.891C175.257 178.672 174.931 179.609 174.931 180.703C174.931 182.214 175.465 183.398 176.533 184.258C177.314 184.883 178.232 185.195 179.287 185.195C180.732 185.195 181.884 184.674 182.744 183.633C183.421 182.812 183.759 181.836 183.759 180.703C183.759 179.18 183.212 178.014 182.119 177.207C181.364 176.647 180.465 176.367 179.423 176.367Z" fill="#444444"/>
    <path d="M127.477 201.526C126.501 203.733 126.012 205.943 126.012 208.155C126.012 210.367 126.501 212.576 127.477 214.783H126.122C125.146 212.576 124.657 210.367 124.657 208.155C124.657 205.943 125.146 203.733 126.122 201.526H127.477ZM129.193 201.526H136.151V202.625L131.742 212H130.27L134.825 202.625H129.193V201.526ZM138.336 201.526H144.664V202.625H139.493L139.317 205.862C139.888 205.755 140.489 205.701 141.119 205.701C143.755 205.701 145.074 206.702 145.074 208.704C145.074 210.95 143.707 212.073 140.972 212.073C140.045 212.073 139.092 211.927 138.116 211.634V210.462C139.092 210.804 140.069 210.975 141.046 210.975C142.828 210.975 143.719 210.218 143.719 208.704C143.719 207.435 142.852 206.8 141.119 206.8C140.02 206.8 139.019 206.897 138.116 207.093L138.336 201.526ZM148.547 212H147.046L154.495 201.526H155.996L148.547 212ZM147.998 203.343C147.998 204.061 148.359 204.419 149.082 204.419C149.785 204.419 150.137 204.061 150.137 203.343C150.137 202.64 149.785 202.288 149.082 202.288C148.359 202.288 147.998 202.64 147.998 203.343ZM147.046 203.357C147.046 202.088 147.725 201.453 149.082 201.453C150.42 201.453 151.089 202.088 151.089 203.357C151.089 204.622 150.42 205.254 149.082 205.254C147.725 205.254 147.046 204.622 147.046 203.357ZM152.905 210.162C152.905 210.879 153.267 211.238 153.989 211.238C154.693 211.238 155.044 210.879 155.044 210.162C155.044 209.458 154.693 209.107 153.989 209.107C153.267 209.107 152.905 209.458 152.905 210.162ZM151.953 210.176C151.953 208.907 152.632 208.272 153.989 208.272C155.327 208.272 155.996 208.907 155.996 210.176C155.996 211.441 155.327 212.073 153.989 212.073C152.632 212.073 151.953 211.441 151.953 210.176ZM167.653 205.877C167.106 205.613 166.481 205.481 165.778 205.481C164.23 205.481 163.456 206.304 163.456 207.95C163.456 209.898 164.23 210.872 165.778 210.872C166.481 210.872 167.106 210.777 167.653 210.586V205.877ZM169.008 211.539C168.075 211.846 166.925 212 165.558 212C163.268 212 162.123 210.667 162.123 208.001C162.123 205.54 163.339 204.31 165.771 204.31C166.435 204.31 167.062 204.432 167.653 204.676V201.526H169.008V211.539ZM172.694 208.125C172.694 209.976 173.463 210.901 175.001 210.901C176.539 210.901 177.308 209.976 177.308 208.125C177.308 206.314 176.539 205.408 175.001 205.408C173.463 205.408 172.694 206.314 172.694 208.125ZM171.339 208.155C171.339 205.591 172.56 204.31 175.001 204.31C177.443 204.31 178.663 205.591 178.663 208.155C178.663 210.713 177.443 211.993 175.001 211.993C172.569 211.993 171.349 210.713 171.339 208.155ZM180.994 212V204.31H181.91L182.151 205.291C182.938 204.637 183.802 204.31 184.744 204.31C186.663 204.31 187.623 205.264 187.623 207.173V212H186.268V207.151C186.268 206.009 185.699 205.438 184.561 205.438C183.785 205.438 183.047 205.762 182.349 206.412V212H180.994ZM193.499 204.31C195.686 204.31 196.78 205.391 196.78 207.554C196.78 207.862 196.758 208.191 196.714 208.543H191.316C191.316 210.115 192.234 210.901 194.07 210.901C194.944 210.901 195.72 210.804 196.399 210.608V211.707C195.72 211.902 194.895 212 193.923 212C191.282 212 189.961 210.689 189.961 208.067C189.961 205.562 191.14 204.31 193.499 204.31ZM191.316 207.415H195.476C195.447 206.067 194.788 205.394 193.499 205.394C192.131 205.394 191.404 206.067 191.316 207.415ZM200.092 201.526C201.069 203.733 201.557 205.943 201.557 208.155C201.557 210.367 201.069 212.576 200.092 214.783H198.737C199.714 212.576 200.202 210.367 200.202 208.155C200.202 205.943 199.714 203.733 198.737 201.526H200.092Z" fill="#BACCFD"/>
    <line x1="1" y1="-1" x2="71.0934" y2="-1" transform="matrix(0.999904 0.0138709 -0.0207041 0.999786 23.2142 35)" stroke="#C4D62D" stroke-width="2" stroke-linecap="round"/>
    <line x1="1" y1="-1" x2="71.0934" y2="-1" transform="matrix(0.999904 0.0138709 -0.0207041 0.999786 230.921 35)" stroke="#C4D62D" stroke-width="2" stroke-linecap="round"/>
    <path d="M271.707 190.196C276.024 172.435 273.808 154.024 265.341 137.294C256.874 120.563 242.535 106.262 224.138 96.2013C205.74 86.1402 184.111 80.7701 161.985 80.7701C139.859 80.7701 118.229 86.1402 99.8319 96.2013C81.4346 106.262 67.0957 120.563 58.6283 137.294C50.161 154.024 47.9455 172.435 52.2622 190.196" stroke="#FFA838" stroke-width="13" stroke-linecap="round"/>
    <path d="M105.222 96.8085C86.8248 106.87 72.4858 121.17 64.0185 137.901C55.5511 154.632 53.3357 173.042 57.6523 190.804" stroke="#C4D62D" stroke-width="33" stroke-linecap="round"/>
    <defs>
        <filter id="filter0_b_233_298" x="-34" y="-34" width="393" height="315" filterUnits="userSpaceOnUse" color-interpolation-filters="sRGB">
            <feFlood flood-opacity="0" result="BackgroundImageFix"/>
            <feGaussianBlur in="BackgroundImageFix" stdDeviation="17"/>
            <feComposite in2="SourceAlpha" operator="in" result="effect1_backgroundBlur_233_298"/>
            <feBlend mode="normal" in="SourceGraphic" in2="effect1_backgroundBlur_233_298" result="shape"/>
        </filter>
    </defs>
</svg>
