
<svg width="165" height="159" viewBox="0 0 165 159" fill="none" xmlns="http://www.w3.org/2000/svg">
    <path d="M82.5 0L91.6199 9.93391L103.017 2.49763L109.287 14.305L122.245 9.83362L125.27 22.7725L138.975 21.547L138.566 34.8045L152.157 36.9018L148.34 49.6448L160.962 54.9332L153.976 66.361L164.837 74.5082L155.121 83.9028L163.539 94.3968L151.704 101.168L157.148 113.349L143.938 117.072L146.067 130.175L132.311 130.615L130.992 143.817L117.555 140.946L112.87 153.417L100.596 147.416L92.84 158.373L82.5 149.619L72.16 158.373L64.4041 147.416L52.1297 153.417L47.4452 140.946L34.0077 143.817L32.6889 130.615L18.9327 130.175L21.0625 117.072L7.85177 113.349L13.2964 101.168L1.4613 94.3968L9.87859 83.9028L0.162796 74.5082L11.0239 66.361L4.03783 54.9332L16.6603 49.6448L12.8429 36.9018L26.4336 34.8045L26.0249 21.547L39.7298 22.7725L42.7553 9.83362L55.7134 14.305L61.9831 2.49763L73.3801 9.93391L82.5 0Z" fill="#C4D62D"/>
</svg>
